<mxfile host="app.diagrams.net" agent="Mozilla/5.0 (Windows NT 10.0; Win64; x64) AppleWebKit/537.36 (KHTML, like Gecko) Chrome/138.0.0.0 Safari/537.36 Edg/138.0.0.0" version="28.0.7" pages="2">
  <diagram name="Page-1" id="Ub80JzAlx73l2XwWJSd6">
    <mxGraphModel dx="1180" dy="887" grid="1" gridSize="10" guides="1" tooltips="1" connect="1" arrows="1" fold="1" page="1" pageScale="1" pageWidth="850" pageHeight="1100" math="0" shadow="0">
      <root>
        <mxCell id="0" />
        <mxCell id="1" parent="0" />
        <mxCell id="KpoVpTNQshxBaXb2Z9Nz-69" value="Admin" style="swimlane;fontStyle=1;align=center;verticalAlign=top;childLayout=stackLayout;horizontal=1;startSize=30.4;horizontalStack=0;resizeParent=1;resizeParentMax=0;resizeLast=0;collapsible=0;marginBottom=0;" vertex="1" parent="1">
          <mxGeometry x="20" y="405" width="341" height="308.4" as="geometry" />
        </mxCell>
        <mxCell id="KpoVpTNQshxBaXb2Z9Nz-70" value="-int adminId" style="text;strokeColor=none;fillColor=none;align=left;verticalAlign=top;spacingLeft=4;spacingRight=4;overflow=hidden;rotatable=0;points=[[0,0.5],[1,0.5]];portConstraint=eastwest;" vertex="1" parent="KpoVpTNQshxBaXb2Z9Nz-69">
          <mxGeometry y="30.4" width="341" height="30" as="geometry" />
        </mxCell>
        <mxCell id="KpoVpTNQshxBaXb2Z9Nz-71" value="-String username" style="text;strokeColor=none;fillColor=none;align=left;verticalAlign=top;spacingLeft=4;spacingRight=4;overflow=hidden;rotatable=0;points=[[0,0.5],[1,0.5]];portConstraint=eastwest;" vertex="1" parent="KpoVpTNQshxBaXb2Z9Nz-69">
          <mxGeometry y="60.4" width="341" height="30" as="geometry" />
        </mxCell>
        <mxCell id="KpoVpTNQshxBaXb2Z9Nz-72" value="-String password" style="text;strokeColor=none;fillColor=none;align=left;verticalAlign=top;spacingLeft=4;spacingRight=4;overflow=hidden;rotatable=0;points=[[0,0.5],[1,0.5]];portConstraint=eastwest;" vertex="1" parent="KpoVpTNQshxBaXb2Z9Nz-69">
          <mxGeometry y="90.4" width="341" height="30" as="geometry" />
        </mxCell>
        <mxCell id="KpoVpTNQshxBaXb2Z9Nz-73" value="-String email" style="text;strokeColor=none;fillColor=none;align=left;verticalAlign=top;spacingLeft=4;spacingRight=4;overflow=hidden;rotatable=0;points=[[0,0.5],[1,0.5]];portConstraint=eastwest;" vertex="1" parent="KpoVpTNQshxBaXb2Z9Nz-69">
          <mxGeometry y="120.4" width="341" height="30" as="geometry" />
        </mxCell>
        <mxCell id="KpoVpTNQshxBaXb2Z9Nz-74" style="line;strokeWidth=1;fillColor=none;align=left;verticalAlign=middle;spacingTop=-1;spacingLeft=3;spacingRight=3;rotatable=0;labelPosition=right;points=[];portConstraint=eastwest;strokeColor=inherit;" vertex="1" parent="KpoVpTNQshxBaXb2Z9Nz-69">
          <mxGeometry y="150.4" width="341" height="8" as="geometry" />
        </mxCell>
        <mxCell id="KpoVpTNQshxBaXb2Z9Nz-75" value="+addProduct(productData)" style="text;strokeColor=none;fillColor=none;align=left;verticalAlign=top;spacingLeft=4;spacingRight=4;overflow=hidden;rotatable=0;points=[[0,0.5],[1,0.5]];portConstraint=eastwest;" vertex="1" parent="KpoVpTNQshxBaXb2Z9Nz-69">
          <mxGeometry y="158.4" width="341" height="30" as="geometry" />
        </mxCell>
        <mxCell id="KpoVpTNQshxBaXb2Z9Nz-76" value="+updateProduct(productId, productData)" style="text;strokeColor=none;fillColor=none;align=left;verticalAlign=top;spacingLeft=4;spacingRight=4;overflow=hidden;rotatable=0;points=[[0,0.5],[1,0.5]];portConstraint=eastwest;" vertex="1" parent="KpoVpTNQshxBaXb2Z9Nz-69">
          <mxGeometry y="188.4" width="341" height="30" as="geometry" />
        </mxCell>
        <mxCell id="KpoVpTNQshxBaXb2Z9Nz-77" value="+getProductDetails(productId)" style="text;strokeColor=none;fillColor=none;align=left;verticalAlign=top;spacingLeft=4;spacingRight=4;overflow=hidden;rotatable=0;points=[[0,0.5],[1,0.5]];portConstraint=eastwest;" vertex="1" parent="KpoVpTNQshxBaXb2Z9Nz-69">
          <mxGeometry y="218.4" width="341" height="30" as="geometry" />
        </mxCell>
        <mxCell id="KpoVpTNQshxBaXb2Z9Nz-78" value="+deleteProduct(productId)" style="text;strokeColor=none;fillColor=none;align=left;verticalAlign=top;spacingLeft=4;spacingRight=4;overflow=hidden;rotatable=0;points=[[0,0.5],[1,0.5]];portConstraint=eastwest;" vertex="1" parent="KpoVpTNQshxBaXb2Z9Nz-69">
          <mxGeometry y="248.4" width="341" height="30" as="geometry" />
        </mxCell>
        <mxCell id="KpoVpTNQshxBaXb2Z9Nz-79" value="+getAllProducts()" style="text;strokeColor=none;fillColor=none;align=left;verticalAlign=top;spacingLeft=4;spacingRight=4;overflow=hidden;rotatable=0;points=[[0,0.5],[1,0.5]];portConstraint=eastwest;" vertex="1" parent="KpoVpTNQshxBaXb2Z9Nz-69">
          <mxGeometry y="278.4" width="341" height="30" as="geometry" />
        </mxCell>
        <mxCell id="KpoVpTNQshxBaXb2Z9Nz-80" value="Products" style="swimlane;fontStyle=1;align=center;verticalAlign=top;childLayout=stackLayout;horizontal=1;startSize=31.11111111111111;horizontalStack=0;resizeParent=1;resizeParentMax=0;resizeLast=0;collapsible=0;marginBottom=0;" vertex="1" parent="1">
          <mxGeometry x="306" y="789" width="273" height="287.1111111111111" as="geometry" />
        </mxCell>
        <mxCell id="KpoVpTNQshxBaXb2Z9Nz-81" value="-int productId" style="text;strokeColor=none;fillColor=none;align=left;verticalAlign=top;spacingLeft=4;spacingRight=4;overflow=hidden;rotatable=0;points=[[0,0.5],[1,0.5]];portConstraint=eastwest;" vertex="1" parent="KpoVpTNQshxBaXb2Z9Nz-80">
          <mxGeometry y="31.11111111111111" width="273" height="31" as="geometry" />
        </mxCell>
        <mxCell id="KpoVpTNQshxBaXb2Z9Nz-82" value="-String name" style="text;strokeColor=none;fillColor=none;align=left;verticalAlign=top;spacingLeft=4;spacingRight=4;overflow=hidden;rotatable=0;points=[[0,0.5],[1,0.5]];portConstraint=eastwest;" vertex="1" parent="KpoVpTNQshxBaXb2Z9Nz-80">
          <mxGeometry y="62.111111111111114" width="273" height="31" as="geometry" />
        </mxCell>
        <mxCell id="KpoVpTNQshxBaXb2Z9Nz-83" value="-String description" style="text;strokeColor=none;fillColor=none;align=left;verticalAlign=top;spacingLeft=4;spacingRight=4;overflow=hidden;rotatable=0;points=[[0,0.5],[1,0.5]];portConstraint=eastwest;" vertex="1" parent="KpoVpTNQshxBaXb2Z9Nz-80">
          <mxGeometry y="93.11111111111111" width="273" height="31" as="geometry" />
        </mxCell>
        <mxCell id="KpoVpTNQshxBaXb2Z9Nz-84" value="-decimal price" style="text;strokeColor=none;fillColor=none;align=left;verticalAlign=top;spacingLeft=4;spacingRight=4;overflow=hidden;rotatable=0;points=[[0,0.5],[1,0.5]];portConstraint=eastwest;" vertex="1" parent="KpoVpTNQshxBaXb2Z9Nz-80">
          <mxGeometry y="124.11111111111111" width="273" height="31" as="geometry" />
        </mxCell>
        <mxCell id="KpoVpTNQshxBaXb2Z9Nz-85" value="-int categoryId" style="text;strokeColor=none;fillColor=none;align=left;verticalAlign=top;spacingLeft=4;spacingRight=4;overflow=hidden;rotatable=0;points=[[0,0.5],[1,0.5]];portConstraint=eastwest;" vertex="1" parent="KpoVpTNQshxBaXb2Z9Nz-80">
          <mxGeometry y="155.11111111111111" width="273" height="31" as="geometry" />
        </mxCell>
        <mxCell id="KpoVpTNQshxBaXb2Z9Nz-86" value="-int stockQuantity" style="text;strokeColor=none;fillColor=none;align=left;verticalAlign=top;spacingLeft=4;spacingRight=4;overflow=hidden;rotatable=0;points=[[0,0.5],[1,0.5]];portConstraint=eastwest;" vertex="1" parent="KpoVpTNQshxBaXb2Z9Nz-80">
          <mxGeometry y="186.11111111111111" width="273" height="31" as="geometry" />
        </mxCell>
        <mxCell id="KpoVpTNQshxBaXb2Z9Nz-87" style="line;strokeWidth=1;fillColor=none;align=left;verticalAlign=middle;spacingTop=-1;spacingLeft=3;spacingRight=3;rotatable=0;labelPosition=right;points=[];portConstraint=eastwest;strokeColor=inherit;" vertex="1" parent="KpoVpTNQshxBaXb2Z9Nz-80">
          <mxGeometry y="217.11111111111111" width="273" height="8" as="geometry" />
        </mxCell>
        <mxCell id="KpoVpTNQshxBaXb2Z9Nz-88" value="+getProductDetails(productId)" style="text;strokeColor=none;fillColor=none;align=left;verticalAlign=top;spacingLeft=4;spacingRight=4;overflow=hidden;rotatable=0;points=[[0,0.5],[1,0.5]];portConstraint=eastwest;" vertex="1" parent="KpoVpTNQshxBaXb2Z9Nz-80">
          <mxGeometry y="225.11111111111111" width="273" height="31" as="geometry" />
        </mxCell>
        <mxCell id="KpoVpTNQshxBaXb2Z9Nz-89" value="+getAllProducts()" style="text;strokeColor=none;fillColor=none;align=left;verticalAlign=top;spacingLeft=4;spacingRight=4;overflow=hidden;rotatable=0;points=[[0,0.5],[1,0.5]];portConstraint=eastwest;" vertex="1" parent="KpoVpTNQshxBaXb2Z9Nz-80">
          <mxGeometry y="256.1111111111111" width="273" height="31" as="geometry" />
        </mxCell>
        <mxCell id="KpoVpTNQshxBaXb2Z9Nz-90" value="Category" style="swimlane;fontStyle=1;align=center;verticalAlign=top;childLayout=stackLayout;horizontal=1;startSize=38.857142857142854;horizontalStack=0;resizeParent=1;resizeParentMax=0;resizeLast=0;collapsible=0;marginBottom=0;" vertex="1" parent="1">
          <mxGeometry x="243" y="1210" width="163" height="135.85714285714286" as="geometry" />
        </mxCell>
        <mxCell id="KpoVpTNQshxBaXb2Z9Nz-91" value="-int categoryId" style="text;strokeColor=none;fillColor=none;align=left;verticalAlign=top;spacingLeft=4;spacingRight=4;overflow=hidden;rotatable=0;points=[[0,0.5],[1,0.5]];portConstraint=eastwest;" vertex="1" parent="KpoVpTNQshxBaXb2Z9Nz-90">
          <mxGeometry y="38.857142857142854" width="163" height="39" as="geometry" />
        </mxCell>
        <mxCell id="KpoVpTNQshxBaXb2Z9Nz-92" value="-String name" style="text;strokeColor=none;fillColor=none;align=left;verticalAlign=top;spacingLeft=4;spacingRight=4;overflow=hidden;rotatable=0;points=[[0,0.5],[1,0.5]];portConstraint=eastwest;" vertex="1" parent="KpoVpTNQshxBaXb2Z9Nz-90">
          <mxGeometry y="77.85714285714286" width="163" height="39" as="geometry" />
        </mxCell>
        <mxCell id="KpoVpTNQshxBaXb2Z9Nz-93" style="line;strokeWidth=1;fillColor=none;align=left;verticalAlign=middle;spacingTop=-1;spacingLeft=3;spacingRight=3;rotatable=0;labelPosition=right;points=[];portConstraint=eastwest;strokeColor=inherit;" vertex="1" parent="KpoVpTNQshxBaXb2Z9Nz-90">
          <mxGeometry y="116.85714285714286" width="163" height="19" as="geometry" />
        </mxCell>
        <mxCell id="KpoVpTNQshxBaXb2Z9Nz-94" value="User" style="swimlane;fontStyle=1;align=center;verticalAlign=top;childLayout=stackLayout;horizontal=1;startSize=30.4;horizontalStack=0;resizeParent=1;resizeParentMax=0;resizeLast=0;collapsible=0;marginBottom=0;" vertex="1" parent="1">
          <mxGeometry x="462" y="20" width="307" height="308.4" as="geometry" />
        </mxCell>
        <mxCell id="KpoVpTNQshxBaXb2Z9Nz-95" value="-int userId" style="text;strokeColor=none;fillColor=none;align=left;verticalAlign=top;spacingLeft=4;spacingRight=4;overflow=hidden;rotatable=0;points=[[0,0.5],[1,0.5]];portConstraint=eastwest;" vertex="1" parent="KpoVpTNQshxBaXb2Z9Nz-94">
          <mxGeometry y="30.4" width="307" height="30" as="geometry" />
        </mxCell>
        <mxCell id="KpoVpTNQshxBaXb2Z9Nz-96" value="-String username" style="text;strokeColor=none;fillColor=none;align=left;verticalAlign=top;spacingLeft=4;spacingRight=4;overflow=hidden;rotatable=0;points=[[0,0.5],[1,0.5]];portConstraint=eastwest;" vertex="1" parent="KpoVpTNQshxBaXb2Z9Nz-94">
          <mxGeometry y="60.4" width="307" height="30" as="geometry" />
        </mxCell>
        <mxCell id="KpoVpTNQshxBaXb2Z9Nz-97" value="-String password" style="text;strokeColor=none;fillColor=none;align=left;verticalAlign=top;spacingLeft=4;spacingRight=4;overflow=hidden;rotatable=0;points=[[0,0.5],[1,0.5]];portConstraint=eastwest;" vertex="1" parent="KpoVpTNQshxBaXb2Z9Nz-94">
          <mxGeometry y="90.4" width="307" height="30" as="geometry" />
        </mxCell>
        <mxCell id="KpoVpTNQshxBaXb2Z9Nz-98" value="-String email" style="text;strokeColor=none;fillColor=none;align=left;verticalAlign=top;spacingLeft=4;spacingRight=4;overflow=hidden;rotatable=0;points=[[0,0.5],[1,0.5]];portConstraint=eastwest;" vertex="1" parent="KpoVpTNQshxBaXb2Z9Nz-94">
          <mxGeometry y="120.4" width="307" height="30" as="geometry" />
        </mxCell>
        <mxCell id="KpoVpTNQshxBaXb2Z9Nz-99" value="-String role" style="text;strokeColor=none;fillColor=none;align=left;verticalAlign=top;spacingLeft=4;spacingRight=4;overflow=hidden;rotatable=0;points=[[0,0.5],[1,0.5]];portConstraint=eastwest;" vertex="1" parent="KpoVpTNQshxBaXb2Z9Nz-94">
          <mxGeometry y="150.4" width="307" height="30" as="geometry" />
        </mxCell>
        <mxCell id="KpoVpTNQshxBaXb2Z9Nz-100" style="line;strokeWidth=1;fillColor=none;align=left;verticalAlign=middle;spacingTop=-1;spacingLeft=3;spacingRight=3;rotatable=0;labelPosition=right;points=[];portConstraint=eastwest;strokeColor=inherit;" vertex="1" parent="KpoVpTNQshxBaXb2Z9Nz-94">
          <mxGeometry y="180.4" width="307" height="8" as="geometry" />
        </mxCell>
        <mxCell id="KpoVpTNQshxBaXb2Z9Nz-101" value="+registerUser(userData)" style="text;strokeColor=none;fillColor=none;align=left;verticalAlign=top;spacingLeft=4;spacingRight=4;overflow=hidden;rotatable=0;points=[[0,0.5],[1,0.5]];portConstraint=eastwest;" vertex="1" parent="KpoVpTNQshxBaXb2Z9Nz-94">
          <mxGeometry y="188.4" width="307" height="30" as="geometry" />
        </mxCell>
        <mxCell id="KpoVpTNQshxBaXb2Z9Nz-102" value="+loginUser(username, password)" style="text;strokeColor=none;fillColor=none;align=left;verticalAlign=top;spacingLeft=4;spacingRight=4;overflow=hidden;rotatable=0;points=[[0,0.5],[1,0.5]];portConstraint=eastwest;" vertex="1" parent="KpoVpTNQshxBaXb2Z9Nz-94">
          <mxGeometry y="218.4" width="307" height="30" as="geometry" />
        </mxCell>
        <mxCell id="KpoVpTNQshxBaXb2Z9Nz-103" value="+getUserProfile(userId)" style="text;strokeColor=none;fillColor=none;align=left;verticalAlign=top;spacingLeft=4;spacingRight=4;overflow=hidden;rotatable=0;points=[[0,0.5],[1,0.5]];portConstraint=eastwest;" vertex="1" parent="KpoVpTNQshxBaXb2Z9Nz-94">
          <mxGeometry y="248.4" width="307" height="30" as="geometry" />
        </mxCell>
        <mxCell id="KpoVpTNQshxBaXb2Z9Nz-104" value="+updateUserProfile(userId, userData)" style="text;strokeColor=none;fillColor=none;align=left;verticalAlign=top;spacingLeft=4;spacingRight=4;overflow=hidden;rotatable=0;points=[[0,0.5],[1,0.5]];portConstraint=eastwest;" vertex="1" parent="KpoVpTNQshxBaXb2Z9Nz-94">
          <mxGeometry y="278.4" width="307" height="30" as="geometry" />
        </mxCell>
        <mxCell id="KpoVpTNQshxBaXb2Z9Nz-105" value="Cart" style="swimlane;fontStyle=1;align=center;verticalAlign=top;childLayout=stackLayout;horizontal=1;startSize=32;horizontalStack=0;resizeParent=1;resizeParentMax=0;resizeLast=0;collapsible=0;marginBottom=0;" vertex="1" parent="1">
          <mxGeometry x="520" y="429" width="223" height="264" as="geometry" />
        </mxCell>
        <mxCell id="KpoVpTNQshxBaXb2Z9Nz-106" value="-int cartId" style="text;strokeColor=none;fillColor=none;align=left;verticalAlign=top;spacingLeft=4;spacingRight=4;overflow=hidden;rotatable=0;points=[[0,0.5],[1,0.5]];portConstraint=eastwest;" vertex="1" parent="KpoVpTNQshxBaXb2Z9Nz-105">
          <mxGeometry y="32" width="223" height="32" as="geometry" />
        </mxCell>
        <mxCell id="KpoVpTNQshxBaXb2Z9Nz-107" value="-int userId" style="text;strokeColor=none;fillColor=none;align=left;verticalAlign=top;spacingLeft=4;spacingRight=4;overflow=hidden;rotatable=0;points=[[0,0.5],[1,0.5]];portConstraint=eastwest;" vertex="1" parent="KpoVpTNQshxBaXb2Z9Nz-105">
          <mxGeometry y="64" width="223" height="32" as="geometry" />
        </mxCell>
        <mxCell id="KpoVpTNQshxBaXb2Z9Nz-108" value="-int productId" style="text;strokeColor=none;fillColor=none;align=left;verticalAlign=top;spacingLeft=4;spacingRight=4;overflow=hidden;rotatable=0;points=[[0,0.5],[1,0.5]];portConstraint=eastwest;" vertex="1" parent="KpoVpTNQshxBaXb2Z9Nz-105">
          <mxGeometry y="96" width="223" height="32" as="geometry" />
        </mxCell>
        <mxCell id="KpoVpTNQshxBaXb2Z9Nz-109" value="-int quantity" style="text;strokeColor=none;fillColor=none;align=left;verticalAlign=top;spacingLeft=4;spacingRight=4;overflow=hidden;rotatable=0;points=[[0,0.5],[1,0.5]];portConstraint=eastwest;" vertex="1" parent="KpoVpTNQshxBaXb2Z9Nz-105">
          <mxGeometry y="128" width="223" height="32" as="geometry" />
        </mxCell>
        <mxCell id="KpoVpTNQshxBaXb2Z9Nz-110" style="line;strokeWidth=1;fillColor=none;align=left;verticalAlign=middle;spacingTop=-1;spacingLeft=3;spacingRight=3;rotatable=0;labelPosition=right;points=[];portConstraint=eastwest;strokeColor=inherit;" vertex="1" parent="KpoVpTNQshxBaXb2Z9Nz-105">
          <mxGeometry y="160" width="223" height="8" as="geometry" />
        </mxCell>
        <mxCell id="KpoVpTNQshxBaXb2Z9Nz-111" value="+addToCart(cartData)" style="text;strokeColor=none;fillColor=none;align=left;verticalAlign=top;spacingLeft=4;spacingRight=4;overflow=hidden;rotatable=0;points=[[0,0.5],[1,0.5]];portConstraint=eastwest;" vertex="1" parent="KpoVpTNQshxBaXb2Z9Nz-105">
          <mxGeometry y="168" width="223" height="32" as="geometry" />
        </mxCell>
        <mxCell id="KpoVpTNQshxBaXb2Z9Nz-112" value="+removeFromCart(cartId)" style="text;strokeColor=none;fillColor=none;align=left;verticalAlign=top;spacingLeft=4;spacingRight=4;overflow=hidden;rotatable=0;points=[[0,0.5],[1,0.5]];portConstraint=eastwest;" vertex="1" parent="KpoVpTNQshxBaXb2Z9Nz-105">
          <mxGeometry y="200" width="223" height="32" as="geometry" />
        </mxCell>
        <mxCell id="KpoVpTNQshxBaXb2Z9Nz-113" value="+getCartDetails(userId)" style="text;strokeColor=none;fillColor=none;align=left;verticalAlign=top;spacingLeft=4;spacingRight=4;overflow=hidden;rotatable=0;points=[[0,0.5],[1,0.5]];portConstraint=eastwest;" vertex="1" parent="KpoVpTNQshxBaXb2Z9Nz-105">
          <mxGeometry y="232" width="223" height="32" as="geometry" />
        </mxCell>
        <mxCell id="KpoVpTNQshxBaXb2Z9Nz-114" value="Order" style="swimlane;fontStyle=1;align=center;verticalAlign=top;childLayout=stackLayout;horizontal=1;startSize=31.11111111111111;horizontalStack=0;resizeParent=1;resizeParentMax=0;resizeLast=0;collapsible=0;marginBottom=0;" vertex="1" parent="1">
          <mxGeometry x="639" y="789" width="306" height="287.1111111111111" as="geometry" />
        </mxCell>
        <mxCell id="KpoVpTNQshxBaXb2Z9Nz-115" value="-int orderId" style="text;strokeColor=none;fillColor=none;align=left;verticalAlign=top;spacingLeft=4;spacingRight=4;overflow=hidden;rotatable=0;points=[[0,0.5],[1,0.5]];portConstraint=eastwest;" vertex="1" parent="KpoVpTNQshxBaXb2Z9Nz-114">
          <mxGeometry y="31.11111111111111" width="306" height="31" as="geometry" />
        </mxCell>
        <mxCell id="KpoVpTNQshxBaXb2Z9Nz-116" value="-int userId" style="text;strokeColor=none;fillColor=none;align=left;verticalAlign=top;spacingLeft=4;spacingRight=4;overflow=hidden;rotatable=0;points=[[0,0.5],[1,0.5]];portConstraint=eastwest;" vertex="1" parent="KpoVpTNQshxBaXb2Z9Nz-114">
          <mxGeometry y="62.111111111111114" width="306" height="31" as="geometry" />
        </mxCell>
        <mxCell id="KpoVpTNQshxBaXb2Z9Nz-117" value="-decimal totalAmount" style="text;strokeColor=none;fillColor=none;align=left;verticalAlign=top;spacingLeft=4;spacingRight=4;overflow=hidden;rotatable=0;points=[[0,0.5],[1,0.5]];portConstraint=eastwest;" vertex="1" parent="KpoVpTNQshxBaXb2Z9Nz-114">
          <mxGeometry y="93.11111111111111" width="306" height="31" as="geometry" />
        </mxCell>
        <mxCell id="KpoVpTNQshxBaXb2Z9Nz-118" value="-Date orderDate" style="text;strokeColor=none;fillColor=none;align=left;verticalAlign=top;spacingLeft=4;spacingRight=4;overflow=hidden;rotatable=0;points=[[0,0.5],[1,0.5]];portConstraint=eastwest;" vertex="1" parent="KpoVpTNQshxBaXb2Z9Nz-114">
          <mxGeometry y="124.11111111111111" width="306" height="31" as="geometry" />
        </mxCell>
        <mxCell id="KpoVpTNQshxBaXb2Z9Nz-119" value="-String status" style="text;strokeColor=none;fillColor=none;align=left;verticalAlign=top;spacingLeft=4;spacingRight=4;overflow=hidden;rotatable=0;points=[[0,0.5],[1,0.5]];portConstraint=eastwest;" vertex="1" parent="KpoVpTNQshxBaXb2Z9Nz-114">
          <mxGeometry y="155.11111111111111" width="306" height="31" as="geometry" />
        </mxCell>
        <mxCell id="KpoVpTNQshxBaXb2Z9Nz-120" style="line;strokeWidth=1;fillColor=none;align=left;verticalAlign=middle;spacingTop=-1;spacingLeft=3;spacingRight=3;rotatable=0;labelPosition=right;points=[];portConstraint=eastwest;strokeColor=inherit;" vertex="1" parent="KpoVpTNQshxBaXb2Z9Nz-114">
          <mxGeometry y="186.11111111111111" width="306" height="8" as="geometry" />
        </mxCell>
        <mxCell id="KpoVpTNQshxBaXb2Z9Nz-121" value="+createOrder(orderData)" style="text;strokeColor=none;fillColor=none;align=left;verticalAlign=top;spacingLeft=4;spacingRight=4;overflow=hidden;rotatable=0;points=[[0,0.5],[1,0.5]];portConstraint=eastwest;" vertex="1" parent="KpoVpTNQshxBaXb2Z9Nz-114">
          <mxGeometry y="194.11111111111111" width="306" height="31" as="geometry" />
        </mxCell>
        <mxCell id="KpoVpTNQshxBaXb2Z9Nz-122" value="+getOrderDetails(orderId)" style="text;strokeColor=none;fillColor=none;align=left;verticalAlign=top;spacingLeft=4;spacingRight=4;overflow=hidden;rotatable=0;points=[[0,0.5],[1,0.5]];portConstraint=eastwest;" vertex="1" parent="KpoVpTNQshxBaXb2Z9Nz-114">
          <mxGeometry y="225.11111111111111" width="306" height="31" as="geometry" />
        </mxCell>
        <mxCell id="KpoVpTNQshxBaXb2Z9Nz-123" value="+updateOrderStatus(orderId, status)" style="text;strokeColor=none;fillColor=none;align=left;verticalAlign=top;spacingLeft=4;spacingRight=4;overflow=hidden;rotatable=0;points=[[0,0.5],[1,0.5]];portConstraint=eastwest;" vertex="1" parent="KpoVpTNQshxBaXb2Z9Nz-114">
          <mxGeometry y="256.1111111111111" width="306" height="31" as="geometry" />
        </mxCell>
        <mxCell id="KpoVpTNQshxBaXb2Z9Nz-124" value="Payment" style="swimlane;fontStyle=1;align=center;verticalAlign=top;childLayout=stackLayout;horizontal=1;startSize=32;horizontalStack=0;resizeParent=1;resizeParentMax=0;resizeLast=0;collapsible=0;marginBottom=0;" vertex="1" parent="1">
          <mxGeometry x="649" y="1150" width="287" height="264" as="geometry" />
        </mxCell>
        <mxCell id="KpoVpTNQshxBaXb2Z9Nz-125" value="-int paymentId" style="text;strokeColor=none;fillColor=none;align=left;verticalAlign=top;spacingLeft=4;spacingRight=4;overflow=hidden;rotatable=0;points=[[0,0.5],[1,0.5]];portConstraint=eastwest;" vertex="1" parent="KpoVpTNQshxBaXb2Z9Nz-124">
          <mxGeometry y="32" width="287" height="32" as="geometry" />
        </mxCell>
        <mxCell id="KpoVpTNQshxBaXb2Z9Nz-126" value="-int orderId" style="text;strokeColor=none;fillColor=none;align=left;verticalAlign=top;spacingLeft=4;spacingRight=4;overflow=hidden;rotatable=0;points=[[0,0.5],[1,0.5]];portConstraint=eastwest;" vertex="1" parent="KpoVpTNQshxBaXb2Z9Nz-124">
          <mxGeometry y="64" width="287" height="32" as="geometry" />
        </mxCell>
        <mxCell id="KpoVpTNQshxBaXb2Z9Nz-127" value="-int amount" style="text;strokeColor=none;fillColor=none;align=left;verticalAlign=top;spacingLeft=4;spacingRight=4;overflow=hidden;rotatable=0;points=[[0,0.5],[1,0.5]];portConstraint=eastwest;" vertex="1" parent="KpoVpTNQshxBaXb2Z9Nz-124">
          <mxGeometry y="96" width="287" height="32" as="geometry" />
        </mxCell>
        <mxCell id="KpoVpTNQshxBaXb2Z9Nz-128" value="-String paymentStatus" style="text;strokeColor=none;fillColor=none;align=left;verticalAlign=top;spacingLeft=4;spacingRight=4;overflow=hidden;rotatable=0;points=[[0,0.5],[1,0.5]];portConstraint=eastwest;" vertex="1" parent="KpoVpTNQshxBaXb2Z9Nz-124">
          <mxGeometry y="128" width="287" height="32" as="geometry" />
        </mxCell>
        <mxCell id="KpoVpTNQshxBaXb2Z9Nz-129" value="-Date paymentDate" style="text;strokeColor=none;fillColor=none;align=left;verticalAlign=top;spacingLeft=4;spacingRight=4;overflow=hidden;rotatable=0;points=[[0,0.5],[1,0.5]];portConstraint=eastwest;" vertex="1" parent="KpoVpTNQshxBaXb2Z9Nz-124">
          <mxGeometry y="160" width="287" height="32" as="geometry" />
        </mxCell>
        <mxCell id="KpoVpTNQshxBaXb2Z9Nz-130" style="line;strokeWidth=1;fillColor=none;align=left;verticalAlign=middle;spacingTop=-1;spacingLeft=3;spacingRight=3;rotatable=0;labelPosition=right;points=[];portConstraint=eastwest;strokeColor=inherit;" vertex="1" parent="KpoVpTNQshxBaXb2Z9Nz-124">
          <mxGeometry y="192" width="287" height="8" as="geometry" />
        </mxCell>
        <mxCell id="KpoVpTNQshxBaXb2Z9Nz-131" value="+processPayment(paymentData)" style="text;strokeColor=none;fillColor=none;align=left;verticalAlign=top;spacingLeft=4;spacingRight=4;overflow=hidden;rotatable=0;points=[[0,0.5],[1,0.5]];portConstraint=eastwest;" vertex="1" parent="KpoVpTNQshxBaXb2Z9Nz-124">
          <mxGeometry y="200" width="287" height="32" as="geometry" />
        </mxCell>
        <mxCell id="KpoVpTNQshxBaXb2Z9Nz-132" value="+getPaymentStatus(paymentId)" style="text;strokeColor=none;fillColor=none;align=left;verticalAlign=top;spacingLeft=4;spacingRight=4;overflow=hidden;rotatable=0;points=[[0,0.5],[1,0.5]];portConstraint=eastwest;" vertex="1" parent="KpoVpTNQshxBaXb2Z9Nz-124">
          <mxGeometry y="232" width="287" height="32" as="geometry" />
        </mxCell>
        <mxCell id="KpoVpTNQshxBaXb2Z9Nz-133" value="manages" style="curved=1;startArrow=diamondThin;startSize=14;startFill=0;endArrow=none;exitX=0.76;exitY=1;entryX=0.08;entryY=0;rounded=0;" edge="1" parent="1" source="KpoVpTNQshxBaXb2Z9Nz-69" target="KpoVpTNQshxBaXb2Z9Nz-80">
          <mxGeometry relative="1" as="geometry">
            <Array as="points">
              <mxPoint x="298" y="753" />
            </Array>
          </mxGeometry>
        </mxCell>
        <mxCell id="KpoVpTNQshxBaXb2Z9Nz-134" value="organizes" style="curved=1;startArrow=diamondThin;startSize=14;startFill=0;endArrow=none;exitX=0.47;exitY=1;entryX=0.12;entryY=0;rounded=0;" edge="1" parent="1" source="KpoVpTNQshxBaXb2Z9Nz-69" target="KpoVpTNQshxBaXb2Z9Nz-90">
          <mxGeometry relative="1" as="geometry">
            <Array as="points">
              <mxPoint x="180" y="753" />
              <mxPoint x="180" y="1114" />
            </Array>
          </mxGeometry>
        </mxCell>
        <mxCell id="KpoVpTNQshxBaXb2Z9Nz-135" value="browses" style="curved=1;startArrow=none;endArrow=open;endSize=12;exitX=0.03;exitY=1;entryX=0.49;entryY=0;rounded=0;" edge="1" parent="1" source="KpoVpTNQshxBaXb2Z9Nz-94" target="KpoVpTNQshxBaXb2Z9Nz-80">
          <mxGeometry relative="1" as="geometry">
            <Array as="points">
              <mxPoint x="439" y="368" />
              <mxPoint x="439" y="753" />
            </Array>
          </mxGeometry>
        </mxCell>
        <mxCell id="KpoVpTNQshxBaXb2Z9Nz-136" value="belongs to" style="curved=1;startArrow=none;endArrow=open;endSize=12;exitX=0.5;exitY=1;entryX=0.81;entryY=0;rounded=0;" edge="1" parent="1" source="KpoVpTNQshxBaXb2Z9Nz-80" target="KpoVpTNQshxBaXb2Z9Nz-90">
          <mxGeometry relative="1" as="geometry">
            <Array as="points">
              <mxPoint x="443" y="1114" />
            </Array>
          </mxGeometry>
        </mxCell>
        <mxCell id="KpoVpTNQshxBaXb2Z9Nz-137" value="owns" style="curved=1;startArrow=none;endArrow=open;endSize=12;exitX=0.54;exitY=1;entryX=0.5;entryY=0;rounded=0;" edge="1" parent="1" source="KpoVpTNQshxBaXb2Z9Nz-94" target="KpoVpTNQshxBaXb2Z9Nz-105">
          <mxGeometry relative="1" as="geometry">
            <Array as="points">
              <mxPoint x="632" y="368" />
            </Array>
          </mxGeometry>
        </mxCell>
        <mxCell id="KpoVpTNQshxBaXb2Z9Nz-138" value="contains" style="curved=1;startArrow=diamondThin;startSize=14;startFill=1;endArrow=none;exitX=0.31;exitY=1;entryX=0.87;entryY=0;rounded=0;" edge="1" parent="1" source="KpoVpTNQshxBaXb2Z9Nz-105" target="KpoVpTNQshxBaXb2Z9Nz-80">
          <mxGeometry relative="1" as="geometry">
            <Array as="points">
              <mxPoint x="569" y="753" />
            </Array>
          </mxGeometry>
        </mxCell>
        <mxCell id="KpoVpTNQshxBaXb2Z9Nz-139" value="converted to" style="curved=1;startArrow=none;endArrow=open;endSize=12;exitX=0.67;exitY=1;entryX=0.22;entryY=0;rounded=0;" edge="1" parent="1" source="KpoVpTNQshxBaXb2Z9Nz-105" target="KpoVpTNQshxBaXb2Z9Nz-114">
          <mxGeometry relative="1" as="geometry">
            <Array as="points">
              <mxPoint x="686" y="753" />
            </Array>
          </mxGeometry>
        </mxCell>
        <mxCell id="KpoVpTNQshxBaXb2Z9Nz-140" value="placed by" style="curved=1;startArrow=none;endArrow=open;endSize=12;exitX=0.58;exitY=0;entryX=1;entryY=0.96;rounded=0;" edge="1" parent="1" source="KpoVpTNQshxBaXb2Z9Nz-114" target="KpoVpTNQshxBaXb2Z9Nz-94">
          <mxGeometry relative="1" as="geometry">
            <Array as="points">
              <mxPoint x="822" y="753" />
              <mxPoint x="822" y="368" />
            </Array>
          </mxGeometry>
        </mxCell>
        <mxCell id="KpoVpTNQshxBaXb2Z9Nz-141" value="triggers" style="curved=1;startArrow=none;endArrow=open;endSize=12;exitX=0.14;exitY=1;entryX=0.12;entryY=0;rounded=0;" edge="1" parent="1" source="KpoVpTNQshxBaXb2Z9Nz-114" target="KpoVpTNQshxBaXb2Z9Nz-124">
          <mxGeometry relative="1" as="geometry">
            <Array as="points">
              <mxPoint x="652" y="1114" />
            </Array>
          </mxGeometry>
        </mxCell>
        <mxCell id="KpoVpTNQshxBaXb2Z9Nz-142" value="belongs to" style="curved=1;startArrow=none;endArrow=open;endSize=12;exitX=0.58;exitY=0;entryX=0.58;entryY=1;rounded=0;" edge="1" parent="1" source="KpoVpTNQshxBaXb2Z9Nz-124" target="KpoVpTNQshxBaXb2Z9Nz-114">
          <mxGeometry relative="1" as="geometry">
            <Array as="points">
              <mxPoint x="822" y="1114" />
            </Array>
          </mxGeometry>
        </mxCell>
      </root>
    </mxGraphModel>
  </diagram>
  <diagram id="lzghtHPpTLFDxBcN-ijc" name="Page-2">
    <mxGraphModel dx="1017" dy="540" grid="1" gridSize="10" guides="1" tooltips="1" connect="1" arrows="1" fold="1" page="1" pageScale="1" pageWidth="850" pageHeight="1100" math="0" shadow="0">
      <root>
        <mxCell id="0" />
        <mxCell id="1" parent="0" />
        <mxCell id="FY0rsQSCU-_IRARhKVEz-1" value="ProductController" style="swimlane;fontStyle=1;align=center;verticalAlign=top;childLayout=stackLayout;horizontal=1;startSize=34.54545454545455;horizontalStack=0;resizeParent=1;resizeParentMax=0;resizeLast=0;collapsible=0;marginBottom=0;" vertex="1" parent="1">
          <mxGeometry x="20" y="20" width="385" height="182.54545454545456" as="geometry" />
        </mxCell>
        <mxCell id="FY0rsQSCU-_IRARhKVEz-2" style="line;strokeWidth=1;fillColor=none;align=left;verticalAlign=middle;spacingTop=-1;spacingLeft=3;spacingRight=3;rotatable=0;labelPosition=right;points=[];portConstraint=eastwest;strokeColor=inherit;" vertex="1" parent="FY0rsQSCU-_IRARhKVEz-1">
          <mxGeometry y="34.54545454545455" width="385" height="8" as="geometry" />
        </mxCell>
        <mxCell id="FY0rsQSCU-_IRARhKVEz-3" value="+addProduct(productData)" style="text;strokeColor=none;fillColor=none;align=left;verticalAlign=top;spacingLeft=4;spacingRight=4;overflow=hidden;rotatable=0;points=[[0,0.5],[1,0.5]];portConstraint=eastwest;" vertex="1" parent="FY0rsQSCU-_IRARhKVEz-1">
          <mxGeometry y="42.54545454545455" width="385" height="35" as="geometry" />
        </mxCell>
        <mxCell id="FY0rsQSCU-_IRARhKVEz-4" value="+updateProduct(productId, productData)" style="text;strokeColor=none;fillColor=none;align=left;verticalAlign=top;spacingLeft=4;spacingRight=4;overflow=hidden;rotatable=0;points=[[0,0.5],[1,0.5]];portConstraint=eastwest;" vertex="1" parent="FY0rsQSCU-_IRARhKVEz-1">
          <mxGeometry y="77.54545454545455" width="385" height="35" as="geometry" />
        </mxCell>
        <mxCell id="FY0rsQSCU-_IRARhKVEz-5" value="+getProductDetails(productId)" style="text;strokeColor=none;fillColor=none;align=left;verticalAlign=top;spacingLeft=4;spacingRight=4;overflow=hidden;rotatable=0;points=[[0,0.5],[1,0.5]];portConstraint=eastwest;" vertex="1" parent="FY0rsQSCU-_IRARhKVEz-1">
          <mxGeometry y="112.54545454545455" width="385" height="35" as="geometry" />
        </mxCell>
        <mxCell id="FY0rsQSCU-_IRARhKVEz-6" value="+deleteProduct(productId)" style="text;strokeColor=none;fillColor=none;align=left;verticalAlign=top;spacingLeft=4;spacingRight=4;overflow=hidden;rotatable=0;points=[[0,0.5],[1,0.5]];portConstraint=eastwest;" vertex="1" parent="FY0rsQSCU-_IRARhKVEz-1">
          <mxGeometry y="147.54545454545456" width="385" height="35" as="geometry" />
        </mxCell>
        <mxCell id="FY0rsQSCU-_IRARhKVEz-7" value="ProductService" style="swimlane;fontStyle=1;align=center;verticalAlign=top;childLayout=stackLayout;horizontal=1;startSize=34.54545454545455;horizontalStack=0;resizeParent=1;resizeParentMax=0;resizeLast=0;collapsible=0;marginBottom=0;" vertex="1" parent="1">
          <mxGeometry x="109" y="268" width="206" height="182.54545454545456" as="geometry" />
        </mxCell>
        <mxCell id="FY0rsQSCU-_IRARhKVEz-8" style="line;strokeWidth=1;fillColor=none;align=left;verticalAlign=middle;spacingTop=-1;spacingLeft=3;spacingRight=3;rotatable=0;labelPosition=right;points=[];portConstraint=eastwest;strokeColor=inherit;" vertex="1" parent="FY0rsQSCU-_IRARhKVEz-7">
          <mxGeometry y="34.54545454545455" width="206" height="8" as="geometry" />
        </mxCell>
        <mxCell id="FY0rsQSCU-_IRARhKVEz-9" value="+getAllProducts()" style="text;strokeColor=none;fillColor=none;align=left;verticalAlign=top;spacingLeft=4;spacingRight=4;overflow=hidden;rotatable=0;points=[[0,0.5],[1,0.5]];portConstraint=eastwest;" vertex="1" parent="FY0rsQSCU-_IRARhKVEz-7">
          <mxGeometry y="42.54545454545455" width="206" height="35" as="geometry" />
        </mxCell>
        <mxCell id="FY0rsQSCU-_IRARhKVEz-10" value="+addProduct()" style="text;strokeColor=none;fillColor=none;align=left;verticalAlign=top;spacingLeft=4;spacingRight=4;overflow=hidden;rotatable=0;points=[[0,0.5],[1,0.5]];portConstraint=eastwest;" vertex="1" parent="FY0rsQSCU-_IRARhKVEz-7">
          <mxGeometry y="77.54545454545455" width="206" height="35" as="geometry" />
        </mxCell>
        <mxCell id="FY0rsQSCU-_IRARhKVEz-11" value="+updateProduct()" style="text;strokeColor=none;fillColor=none;align=left;verticalAlign=top;spacingLeft=4;spacingRight=4;overflow=hidden;rotatable=0;points=[[0,0.5],[1,0.5]];portConstraint=eastwest;" vertex="1" parent="FY0rsQSCU-_IRARhKVEz-7">
          <mxGeometry y="112.54545454545455" width="206" height="35" as="geometry" />
        </mxCell>
        <mxCell id="FY0rsQSCU-_IRARhKVEz-12" value="+deleteProduct()" style="text;strokeColor=none;fillColor=none;align=left;verticalAlign=top;spacingLeft=4;spacingRight=4;overflow=hidden;rotatable=0;points=[[0,0.5],[1,0.5]];portConstraint=eastwest;" vertex="1" parent="FY0rsQSCU-_IRARhKVEz-7">
          <mxGeometry y="147.54545454545456" width="206" height="35" as="geometry" />
        </mxCell>
        <mxCell id="FY0rsQSCU-_IRARhKVEz-13" value="Product" style="swimlane;fontStyle=1;align=center;verticalAlign=top;childLayout=stackLayout;horizontal=1;startSize=30.933333333333334;horizontalStack=0;resizeParent=1;resizeParentMax=0;resizeLast=0;collapsible=0;marginBottom=0;" vertex="1" parent="1">
          <mxGeometry x="118" y="516" width="188" height="231.93333333333334" as="geometry" />
        </mxCell>
        <mxCell id="FY0rsQSCU-_IRARhKVEz-14" value="+int productId" style="text;strokeColor=none;fillColor=none;align=left;verticalAlign=top;spacingLeft=4;spacingRight=4;overflow=hidden;rotatable=0;points=[[0,0.5],[1,0.5]];portConstraint=eastwest;" vertex="1" parent="FY0rsQSCU-_IRARhKVEz-13">
          <mxGeometry y="30.933333333333334" width="188" height="31" as="geometry" />
        </mxCell>
        <mxCell id="FY0rsQSCU-_IRARhKVEz-15" value="+String name" style="text;strokeColor=none;fillColor=none;align=left;verticalAlign=top;spacingLeft=4;spacingRight=4;overflow=hidden;rotatable=0;points=[[0,0.5],[1,0.5]];portConstraint=eastwest;" vertex="1" parent="FY0rsQSCU-_IRARhKVEz-13">
          <mxGeometry y="61.93333333333334" width="188" height="31" as="geometry" />
        </mxCell>
        <mxCell id="FY0rsQSCU-_IRARhKVEz-16" value="+String description" style="text;strokeColor=none;fillColor=none;align=left;verticalAlign=top;spacingLeft=4;spacingRight=4;overflow=hidden;rotatable=0;points=[[0,0.5],[1,0.5]];portConstraint=eastwest;" vertex="1" parent="FY0rsQSCU-_IRARhKVEz-13">
          <mxGeometry y="92.93333333333334" width="188" height="31" as="geometry" />
        </mxCell>
        <mxCell id="FY0rsQSCU-_IRARhKVEz-17" value="+double price" style="text;strokeColor=none;fillColor=none;align=left;verticalAlign=top;spacingLeft=4;spacingRight=4;overflow=hidden;rotatable=0;points=[[0,0.5],[1,0.5]];portConstraint=eastwest;" vertex="1" parent="FY0rsQSCU-_IRARhKVEz-13">
          <mxGeometry y="123.93333333333334" width="188" height="31" as="geometry" />
        </mxCell>
        <mxCell id="FY0rsQSCU-_IRARhKVEz-18" value="+int categoryId" style="text;strokeColor=none;fillColor=none;align=left;verticalAlign=top;spacingLeft=4;spacingRight=4;overflow=hidden;rotatable=0;points=[[0,0.5],[1,0.5]];portConstraint=eastwest;" vertex="1" parent="FY0rsQSCU-_IRARhKVEz-13">
          <mxGeometry y="154.93333333333334" width="188" height="31" as="geometry" />
        </mxCell>
        <mxCell id="FY0rsQSCU-_IRARhKVEz-19" value="+int stockQuantity" style="text;strokeColor=none;fillColor=none;align=left;verticalAlign=top;spacingLeft=4;spacingRight=4;overflow=hidden;rotatable=0;points=[[0,0.5],[1,0.5]];portConstraint=eastwest;" vertex="1" parent="FY0rsQSCU-_IRARhKVEz-13">
          <mxGeometry y="185.93333333333334" width="188" height="31" as="geometry" />
        </mxCell>
        <mxCell id="FY0rsQSCU-_IRARhKVEz-20" style="line;strokeWidth=1;fillColor=none;align=left;verticalAlign=middle;spacingTop=-1;spacingLeft=3;spacingRight=3;rotatable=0;labelPosition=right;points=[];portConstraint=eastwest;strokeColor=inherit;" vertex="1" parent="FY0rsQSCU-_IRARhKVEz-13">
          <mxGeometry y="216.93333333333334" width="188" height="15" as="geometry" />
        </mxCell>
        <mxCell id="FY0rsQSCU-_IRARhKVEz-21" value="CartController" style="swimlane;fontStyle=1;align=center;verticalAlign=top;childLayout=stackLayout;horizontal=1;startSize=36.888888888888886;horizontalStack=0;resizeParent=1;resizeParentMax=0;resizeLast=0;collapsible=0;marginBottom=0;" vertex="1" parent="1">
          <mxGeometry x="455" y="32" width="261" height="155.88888888888889" as="geometry" />
        </mxCell>
        <mxCell id="FY0rsQSCU-_IRARhKVEz-22" style="line;strokeWidth=1;fillColor=none;align=left;verticalAlign=middle;spacingTop=-1;spacingLeft=3;spacingRight=3;rotatable=0;labelPosition=right;points=[];portConstraint=eastwest;strokeColor=inherit;" vertex="1" parent="FY0rsQSCU-_IRARhKVEz-21">
          <mxGeometry y="36.888888888888886" width="261" height="8" as="geometry" />
        </mxCell>
        <mxCell id="FY0rsQSCU-_IRARhKVEz-23" value="+addToCart(cartData)" style="text;strokeColor=none;fillColor=none;align=left;verticalAlign=top;spacingLeft=4;spacingRight=4;overflow=hidden;rotatable=0;points=[[0,0.5],[1,0.5]];portConstraint=eastwest;" vertex="1" parent="FY0rsQSCU-_IRARhKVEz-21">
          <mxGeometry y="44.888888888888886" width="261" height="37" as="geometry" />
        </mxCell>
        <mxCell id="FY0rsQSCU-_IRARhKVEz-24" value="+removeFromCart(cartId)" style="text;strokeColor=none;fillColor=none;align=left;verticalAlign=top;spacingLeft=4;spacingRight=4;overflow=hidden;rotatable=0;points=[[0,0.5],[1,0.5]];portConstraint=eastwest;" vertex="1" parent="FY0rsQSCU-_IRARhKVEz-21">
          <mxGeometry y="81.88888888888889" width="261" height="37" as="geometry" />
        </mxCell>
        <mxCell id="FY0rsQSCU-_IRARhKVEz-25" value="+getCartDetails(userId)" style="text;strokeColor=none;fillColor=none;align=left;verticalAlign=top;spacingLeft=4;spacingRight=4;overflow=hidden;rotatable=0;points=[[0,0.5],[1,0.5]];portConstraint=eastwest;" vertex="1" parent="FY0rsQSCU-_IRARhKVEz-21">
          <mxGeometry y="118.88888888888889" width="261" height="37" as="geometry" />
        </mxCell>
        <mxCell id="FY0rsQSCU-_IRARhKVEz-26" value="CartService" style="swimlane;fontStyle=1;align=center;verticalAlign=top;childLayout=stackLayout;horizontal=1;startSize=36.888888888888886;horizontalStack=0;resizeParent=1;resizeParentMax=0;resizeLast=0;collapsible=0;marginBottom=0;" vertex="1" parent="1">
          <mxGeometry x="481" y="280" width="208" height="155.88888888888889" as="geometry" />
        </mxCell>
        <mxCell id="FY0rsQSCU-_IRARhKVEz-27" style="line;strokeWidth=1;fillColor=none;align=left;verticalAlign=middle;spacingTop=-1;spacingLeft=3;spacingRight=3;rotatable=0;labelPosition=right;points=[];portConstraint=eastwest;strokeColor=inherit;" vertex="1" parent="FY0rsQSCU-_IRARhKVEz-26">
          <mxGeometry y="36.888888888888886" width="208" height="8" as="geometry" />
        </mxCell>
        <mxCell id="FY0rsQSCU-_IRARhKVEz-28" value="+addToCart()" style="text;strokeColor=none;fillColor=none;align=left;verticalAlign=top;spacingLeft=4;spacingRight=4;overflow=hidden;rotatable=0;points=[[0,0.5],[1,0.5]];portConstraint=eastwest;" vertex="1" parent="FY0rsQSCU-_IRARhKVEz-26">
          <mxGeometry y="44.888888888888886" width="208" height="37" as="geometry" />
        </mxCell>
        <mxCell id="FY0rsQSCU-_IRARhKVEz-29" value="+removeFromCart()" style="text;strokeColor=none;fillColor=none;align=left;verticalAlign=top;spacingLeft=4;spacingRight=4;overflow=hidden;rotatable=0;points=[[0,0.5],[1,0.5]];portConstraint=eastwest;" vertex="1" parent="FY0rsQSCU-_IRARhKVEz-26">
          <mxGeometry y="81.88888888888889" width="208" height="37" as="geometry" />
        </mxCell>
        <mxCell id="FY0rsQSCU-_IRARhKVEz-30" value="+getCartDetails()" style="text;strokeColor=none;fillColor=none;align=left;verticalAlign=top;spacingLeft=4;spacingRight=4;overflow=hidden;rotatable=0;points=[[0,0.5],[1,0.5]];portConstraint=eastwest;" vertex="1" parent="FY0rsQSCU-_IRARhKVEz-26">
          <mxGeometry y="118.88888888888889" width="208" height="37" as="geometry" />
        </mxCell>
        <mxCell id="FY0rsQSCU-_IRARhKVEz-31" value="Cart" style="swimlane;fontStyle=1;align=center;verticalAlign=top;childLayout=stackLayout;horizontal=1;startSize=33.45454545454545;horizontalStack=0;resizeParent=1;resizeParentMax=0;resizeLast=0;collapsible=0;marginBottom=0;" vertex="1" parent="1">
          <mxGeometry x="514" y="540" width="142" height="182.45454545454544" as="geometry" />
        </mxCell>
        <mxCell id="FY0rsQSCU-_IRARhKVEz-32" value="+int cartId" style="text;strokeColor=none;fillColor=none;align=left;verticalAlign=top;spacingLeft=4;spacingRight=4;overflow=hidden;rotatable=0;points=[[0,0.5],[1,0.5]];portConstraint=eastwest;" vertex="1" parent="FY0rsQSCU-_IRARhKVEz-31">
          <mxGeometry y="33.45454545454545" width="142" height="33" as="geometry" />
        </mxCell>
        <mxCell id="FY0rsQSCU-_IRARhKVEz-33" value="+int userId" style="text;strokeColor=none;fillColor=none;align=left;verticalAlign=top;spacingLeft=4;spacingRight=4;overflow=hidden;rotatable=0;points=[[0,0.5],[1,0.5]];portConstraint=eastwest;" vertex="1" parent="FY0rsQSCU-_IRARhKVEz-31">
          <mxGeometry y="66.45454545454545" width="142" height="33" as="geometry" />
        </mxCell>
        <mxCell id="FY0rsQSCU-_IRARhKVEz-34" value="+int productId" style="text;strokeColor=none;fillColor=none;align=left;verticalAlign=top;spacingLeft=4;spacingRight=4;overflow=hidden;rotatable=0;points=[[0,0.5],[1,0.5]];portConstraint=eastwest;" vertex="1" parent="FY0rsQSCU-_IRARhKVEz-31">
          <mxGeometry y="99.45454545454545" width="142" height="33" as="geometry" />
        </mxCell>
        <mxCell id="FY0rsQSCU-_IRARhKVEz-35" value="+int quantity" style="text;strokeColor=none;fillColor=none;align=left;verticalAlign=top;spacingLeft=4;spacingRight=4;overflow=hidden;rotatable=0;points=[[0,0.5],[1,0.5]];portConstraint=eastwest;" vertex="1" parent="FY0rsQSCU-_IRARhKVEz-31">
          <mxGeometry y="132.45454545454544" width="142" height="33" as="geometry" />
        </mxCell>
        <mxCell id="FY0rsQSCU-_IRARhKVEz-36" style="line;strokeWidth=1;fillColor=none;align=left;verticalAlign=middle;spacingTop=-1;spacingLeft=3;spacingRight=3;rotatable=0;labelPosition=right;points=[];portConstraint=eastwest;strokeColor=inherit;" vertex="1" parent="FY0rsQSCU-_IRARhKVEz-31">
          <mxGeometry y="165.45454545454544" width="142" height="17" as="geometry" />
        </mxCell>
        <mxCell id="FY0rsQSCU-_IRARhKVEz-37" value="OrderController" style="swimlane;fontStyle=1;align=center;verticalAlign=top;childLayout=stackLayout;horizontal=1;startSize=36.888888888888886;horizontalStack=0;resizeParent=1;resizeParentMax=0;resizeLast=0;collapsible=0;marginBottom=0;" vertex="1" parent="1">
          <mxGeometry x="765" y="32" width="344" height="155.88888888888889" as="geometry" />
        </mxCell>
        <mxCell id="FY0rsQSCU-_IRARhKVEz-38" style="line;strokeWidth=1;fillColor=none;align=left;verticalAlign=middle;spacingTop=-1;spacingLeft=3;spacingRight=3;rotatable=0;labelPosition=right;points=[];portConstraint=eastwest;strokeColor=inherit;" vertex="1" parent="FY0rsQSCU-_IRARhKVEz-37">
          <mxGeometry y="36.888888888888886" width="344" height="8" as="geometry" />
        </mxCell>
        <mxCell id="FY0rsQSCU-_IRARhKVEz-39" value="+createOrder(orderData)" style="text;strokeColor=none;fillColor=none;align=left;verticalAlign=top;spacingLeft=4;spacingRight=4;overflow=hidden;rotatable=0;points=[[0,0.5],[1,0.5]];portConstraint=eastwest;" vertex="1" parent="FY0rsQSCU-_IRARhKVEz-37">
          <mxGeometry y="44.888888888888886" width="344" height="37" as="geometry" />
        </mxCell>
        <mxCell id="FY0rsQSCU-_IRARhKVEz-40" value="+getOrderDetails(orderId)" style="text;strokeColor=none;fillColor=none;align=left;verticalAlign=top;spacingLeft=4;spacingRight=4;overflow=hidden;rotatable=0;points=[[0,0.5],[1,0.5]];portConstraint=eastwest;" vertex="1" parent="FY0rsQSCU-_IRARhKVEz-37">
          <mxGeometry y="81.88888888888889" width="344" height="37" as="geometry" />
        </mxCell>
        <mxCell id="FY0rsQSCU-_IRARhKVEz-41" value="+updateOrderStatus(orderId, status)" style="text;strokeColor=none;fillColor=none;align=left;verticalAlign=top;spacingLeft=4;spacingRight=4;overflow=hidden;rotatable=0;points=[[0,0.5],[1,0.5]];portConstraint=eastwest;" vertex="1" parent="FY0rsQSCU-_IRARhKVEz-37">
          <mxGeometry y="118.88888888888889" width="344" height="37" as="geometry" />
        </mxCell>
        <mxCell id="FY0rsQSCU-_IRARhKVEz-42" value="OrderService" style="swimlane;fontStyle=1;align=center;verticalAlign=top;childLayout=stackLayout;horizontal=1;startSize=36.888888888888886;horizontalStack=0;resizeParent=1;resizeParentMax=0;resizeLast=0;collapsible=0;marginBottom=0;" vertex="1" parent="1">
          <mxGeometry x="823" y="280" width="228" height="155.88888888888889" as="geometry" />
        </mxCell>
        <mxCell id="FY0rsQSCU-_IRARhKVEz-43" style="line;strokeWidth=1;fillColor=none;align=left;verticalAlign=middle;spacingTop=-1;spacingLeft=3;spacingRight=3;rotatable=0;labelPosition=right;points=[];portConstraint=eastwest;strokeColor=inherit;" vertex="1" parent="FY0rsQSCU-_IRARhKVEz-42">
          <mxGeometry y="36.888888888888886" width="228" height="8" as="geometry" />
        </mxCell>
        <mxCell id="FY0rsQSCU-_IRARhKVEz-44" value="+createOrder()" style="text;strokeColor=none;fillColor=none;align=left;verticalAlign=top;spacingLeft=4;spacingRight=4;overflow=hidden;rotatable=0;points=[[0,0.5],[1,0.5]];portConstraint=eastwest;" vertex="1" parent="FY0rsQSCU-_IRARhKVEz-42">
          <mxGeometry y="44.888888888888886" width="228" height="37" as="geometry" />
        </mxCell>
        <mxCell id="FY0rsQSCU-_IRARhKVEz-45" value="+getOrderDetails()" style="text;strokeColor=none;fillColor=none;align=left;verticalAlign=top;spacingLeft=4;spacingRight=4;overflow=hidden;rotatable=0;points=[[0,0.5],[1,0.5]];portConstraint=eastwest;" vertex="1" parent="FY0rsQSCU-_IRARhKVEz-42">
          <mxGeometry y="81.88888888888889" width="228" height="37" as="geometry" />
        </mxCell>
        <mxCell id="FY0rsQSCU-_IRARhKVEz-46" value="+updateOrderStatus()" style="text;strokeColor=none;fillColor=none;align=left;verticalAlign=top;spacingLeft=4;spacingRight=4;overflow=hidden;rotatable=0;points=[[0,0.5],[1,0.5]];portConstraint=eastwest;" vertex="1" parent="FY0rsQSCU-_IRARhKVEz-42">
          <mxGeometry y="118.88888888888889" width="228" height="37" as="geometry" />
        </mxCell>
        <mxCell id="FY0rsQSCU-_IRARhKVEz-47" value="Order" style="swimlane;fontStyle=1;align=center;verticalAlign=top;childLayout=stackLayout;horizontal=1;startSize=32;horizontalStack=0;resizeParent=1;resizeParentMax=0;resizeLast=0;collapsible=0;marginBottom=0;" vertex="1" parent="1">
          <mxGeometry x="839" y="528" width="197" height="208" as="geometry" />
        </mxCell>
        <mxCell id="FY0rsQSCU-_IRARhKVEz-48" value="+int orderId" style="text;strokeColor=none;fillColor=none;align=left;verticalAlign=top;spacingLeft=4;spacingRight=4;overflow=hidden;rotatable=0;points=[[0,0.5],[1,0.5]];portConstraint=eastwest;" vertex="1" parent="FY0rsQSCU-_IRARhKVEz-47">
          <mxGeometry y="32" width="197" height="32" as="geometry" />
        </mxCell>
        <mxCell id="FY0rsQSCU-_IRARhKVEz-49" value="+int userId" style="text;strokeColor=none;fillColor=none;align=left;verticalAlign=top;spacingLeft=4;spacingRight=4;overflow=hidden;rotatable=0;points=[[0,0.5],[1,0.5]];portConstraint=eastwest;" vertex="1" parent="FY0rsQSCU-_IRARhKVEz-47">
          <mxGeometry y="64" width="197" height="32" as="geometry" />
        </mxCell>
        <mxCell id="FY0rsQSCU-_IRARhKVEz-50" value="+double totalAmount" style="text;strokeColor=none;fillColor=none;align=left;verticalAlign=top;spacingLeft=4;spacingRight=4;overflow=hidden;rotatable=0;points=[[0,0.5],[1,0.5]];portConstraint=eastwest;" vertex="1" parent="FY0rsQSCU-_IRARhKVEz-47">
          <mxGeometry y="96" width="197" height="32" as="geometry" />
        </mxCell>
        <mxCell id="FY0rsQSCU-_IRARhKVEz-51" value="+Date orderDate" style="text;strokeColor=none;fillColor=none;align=left;verticalAlign=top;spacingLeft=4;spacingRight=4;overflow=hidden;rotatable=0;points=[[0,0.5],[1,0.5]];portConstraint=eastwest;" vertex="1" parent="FY0rsQSCU-_IRARhKVEz-47">
          <mxGeometry y="128" width="197" height="32" as="geometry" />
        </mxCell>
        <mxCell id="FY0rsQSCU-_IRARhKVEz-52" value="+String status" style="text;strokeColor=none;fillColor=none;align=left;verticalAlign=top;spacingLeft=4;spacingRight=4;overflow=hidden;rotatable=0;points=[[0,0.5],[1,0.5]];portConstraint=eastwest;" vertex="1" parent="FY0rsQSCU-_IRARhKVEz-47">
          <mxGeometry y="160" width="197" height="32" as="geometry" />
        </mxCell>
        <mxCell id="FY0rsQSCU-_IRARhKVEz-53" style="line;strokeWidth=1;fillColor=none;align=left;verticalAlign=middle;spacingTop=-1;spacingLeft=3;spacingRight=3;rotatable=0;labelPosition=right;points=[];portConstraint=eastwest;strokeColor=inherit;" vertex="1" parent="FY0rsQSCU-_IRARhKVEz-47">
          <mxGeometry y="192" width="197" height="16" as="geometry" />
        </mxCell>
        <mxCell id="FY0rsQSCU-_IRARhKVEz-54" value="PaymentController" style="swimlane;fontStyle=1;align=center;verticalAlign=top;childLayout=stackLayout;horizontal=1;startSize=40.57142857142857;horizontalStack=0;resizeParent=1;resizeParentMax=0;resizeLast=0;collapsible=0;marginBottom=0;" vertex="1" parent="1">
          <mxGeometry x="1160" y="44" width="325" height="130.57142857142856" as="geometry" />
        </mxCell>
        <mxCell id="FY0rsQSCU-_IRARhKVEz-55" style="line;strokeWidth=1;fillColor=none;align=left;verticalAlign=middle;spacingTop=-1;spacingLeft=3;spacingRight=3;rotatable=0;labelPosition=right;points=[];portConstraint=eastwest;strokeColor=inherit;" vertex="1" parent="FY0rsQSCU-_IRARhKVEz-54">
          <mxGeometry y="40.57142857142857" width="325" height="8" as="geometry" />
        </mxCell>
        <mxCell id="FY0rsQSCU-_IRARhKVEz-56" value="+processPayment(paymentData)" style="text;strokeColor=none;fillColor=none;align=left;verticalAlign=top;spacingLeft=4;spacingRight=4;overflow=hidden;rotatable=0;points=[[0,0.5],[1,0.5]];portConstraint=eastwest;" vertex="1" parent="FY0rsQSCU-_IRARhKVEz-54">
          <mxGeometry y="48.57142857142857" width="325" height="41" as="geometry" />
        </mxCell>
        <mxCell id="FY0rsQSCU-_IRARhKVEz-57" value="+getPaymentStatus(paymentId)" style="text;strokeColor=none;fillColor=none;align=left;verticalAlign=top;spacingLeft=4;spacingRight=4;overflow=hidden;rotatable=0;points=[[0,0.5],[1,0.5]];portConstraint=eastwest;" vertex="1" parent="FY0rsQSCU-_IRARhKVEz-54">
          <mxGeometry y="89.57142857142857" width="325" height="41" as="geometry" />
        </mxCell>
        <mxCell id="FY0rsQSCU-_IRARhKVEz-58" value="PaymentService" style="swimlane;fontStyle=1;align=center;verticalAlign=top;childLayout=stackLayout;horizontal=1;startSize=40.57142857142857;horizontalStack=0;resizeParent=1;resizeParentMax=0;resizeLast=0;collapsible=0;marginBottom=0;" vertex="1" parent="1">
          <mxGeometry x="1205" y="292" width="233" height="130.57142857142856" as="geometry" />
        </mxCell>
        <mxCell id="FY0rsQSCU-_IRARhKVEz-59" style="line;strokeWidth=1;fillColor=none;align=left;verticalAlign=middle;spacingTop=-1;spacingLeft=3;spacingRight=3;rotatable=0;labelPosition=right;points=[];portConstraint=eastwest;strokeColor=inherit;" vertex="1" parent="FY0rsQSCU-_IRARhKVEz-58">
          <mxGeometry y="40.57142857142857" width="233" height="8" as="geometry" />
        </mxCell>
        <mxCell id="FY0rsQSCU-_IRARhKVEz-60" value="+processPayment()" style="text;strokeColor=none;fillColor=none;align=left;verticalAlign=top;spacingLeft=4;spacingRight=4;overflow=hidden;rotatable=0;points=[[0,0.5],[1,0.5]];portConstraint=eastwest;" vertex="1" parent="FY0rsQSCU-_IRARhKVEz-58">
          <mxGeometry y="48.57142857142857" width="233" height="41" as="geometry" />
        </mxCell>
        <mxCell id="FY0rsQSCU-_IRARhKVEz-61" value="+getPaymentStatus()" style="text;strokeColor=none;fillColor=none;align=left;verticalAlign=top;spacingLeft=4;spacingRight=4;overflow=hidden;rotatable=0;points=[[0,0.5],[1,0.5]];portConstraint=eastwest;" vertex="1" parent="FY0rsQSCU-_IRARhKVEz-58">
          <mxGeometry y="89.57142857142857" width="233" height="41" as="geometry" />
        </mxCell>
        <mxCell id="FY0rsQSCU-_IRARhKVEz-62" value="Payment" style="swimlane;fontStyle=1;align=center;verticalAlign=top;childLayout=stackLayout;horizontal=1;startSize=32;horizontalStack=0;resizeParent=1;resizeParentMax=0;resizeLast=0;collapsible=0;marginBottom=0;" vertex="1" parent="1">
          <mxGeometry x="1213" y="528" width="217" height="208" as="geometry" />
        </mxCell>
        <mxCell id="FY0rsQSCU-_IRARhKVEz-63" value="+int paymentId" style="text;strokeColor=none;fillColor=none;align=left;verticalAlign=top;spacingLeft=4;spacingRight=4;overflow=hidden;rotatable=0;points=[[0,0.5],[1,0.5]];portConstraint=eastwest;" vertex="1" parent="FY0rsQSCU-_IRARhKVEz-62">
          <mxGeometry y="32" width="217" height="32" as="geometry" />
        </mxCell>
        <mxCell id="FY0rsQSCU-_IRARhKVEz-64" value="+int orderId" style="text;strokeColor=none;fillColor=none;align=left;verticalAlign=top;spacingLeft=4;spacingRight=4;overflow=hidden;rotatable=0;points=[[0,0.5],[1,0.5]];portConstraint=eastwest;" vertex="1" parent="FY0rsQSCU-_IRARhKVEz-62">
          <mxGeometry y="64" width="217" height="32" as="geometry" />
        </mxCell>
        <mxCell id="FY0rsQSCU-_IRARhKVEz-65" value="+double amount" style="text;strokeColor=none;fillColor=none;align=left;verticalAlign=top;spacingLeft=4;spacingRight=4;overflow=hidden;rotatable=0;points=[[0,0.5],[1,0.5]];portConstraint=eastwest;" vertex="1" parent="FY0rsQSCU-_IRARhKVEz-62">
          <mxGeometry y="96" width="217" height="32" as="geometry" />
        </mxCell>
        <mxCell id="FY0rsQSCU-_IRARhKVEz-66" value="+String paymentStatus" style="text;strokeColor=none;fillColor=none;align=left;verticalAlign=top;spacingLeft=4;spacingRight=4;overflow=hidden;rotatable=0;points=[[0,0.5],[1,0.5]];portConstraint=eastwest;" vertex="1" parent="FY0rsQSCU-_IRARhKVEz-62">
          <mxGeometry y="128" width="217" height="32" as="geometry" />
        </mxCell>
        <mxCell id="FY0rsQSCU-_IRARhKVEz-67" value="+Date paymentDate" style="text;strokeColor=none;fillColor=none;align=left;verticalAlign=top;spacingLeft=4;spacingRight=4;overflow=hidden;rotatable=0;points=[[0,0.5],[1,0.5]];portConstraint=eastwest;" vertex="1" parent="FY0rsQSCU-_IRARhKVEz-62">
          <mxGeometry y="160" width="217" height="32" as="geometry" />
        </mxCell>
        <mxCell id="FY0rsQSCU-_IRARhKVEz-68" style="line;strokeWidth=1;fillColor=none;align=left;verticalAlign=middle;spacingTop=-1;spacingLeft=3;spacingRight=3;rotatable=0;labelPosition=right;points=[];portConstraint=eastwest;strokeColor=inherit;" vertex="1" parent="FY0rsQSCU-_IRARhKVEz-62">
          <mxGeometry y="192" width="217" height="16" as="geometry" />
        </mxCell>
        <mxCell id="FY0rsQSCU-_IRARhKVEz-69" value="UserController" style="swimlane;fontStyle=1;align=center;verticalAlign=top;childLayout=stackLayout;horizontal=1;startSize=34.54545454545455;horizontalStack=0;resizeParent=1;resizeParentMax=0;resizeLast=0;collapsible=0;marginBottom=0;" vertex="1" parent="1">
          <mxGeometry x="1534" y="20" width="345" height="182.54545454545456" as="geometry" />
        </mxCell>
        <mxCell id="FY0rsQSCU-_IRARhKVEz-70" style="line;strokeWidth=1;fillColor=none;align=left;verticalAlign=middle;spacingTop=-1;spacingLeft=3;spacingRight=3;rotatable=0;labelPosition=right;points=[];portConstraint=eastwest;strokeColor=inherit;" vertex="1" parent="FY0rsQSCU-_IRARhKVEz-69">
          <mxGeometry y="34.54545454545455" width="345" height="8" as="geometry" />
        </mxCell>
        <mxCell id="FY0rsQSCU-_IRARhKVEz-71" value="+registerUser(userData)" style="text;strokeColor=none;fillColor=none;align=left;verticalAlign=top;spacingLeft=4;spacingRight=4;overflow=hidden;rotatable=0;points=[[0,0.5],[1,0.5]];portConstraint=eastwest;" vertex="1" parent="FY0rsQSCU-_IRARhKVEz-69">
          <mxGeometry y="42.54545454545455" width="345" height="35" as="geometry" />
        </mxCell>
        <mxCell id="FY0rsQSCU-_IRARhKVEz-72" value="+loginUser(username, password)" style="text;strokeColor=none;fillColor=none;align=left;verticalAlign=top;spacingLeft=4;spacingRight=4;overflow=hidden;rotatable=0;points=[[0,0.5],[1,0.5]];portConstraint=eastwest;" vertex="1" parent="FY0rsQSCU-_IRARhKVEz-69">
          <mxGeometry y="77.54545454545455" width="345" height="35" as="geometry" />
        </mxCell>
        <mxCell id="FY0rsQSCU-_IRARhKVEz-73" value="+getUserProfile(userId)" style="text;strokeColor=none;fillColor=none;align=left;verticalAlign=top;spacingLeft=4;spacingRight=4;overflow=hidden;rotatable=0;points=[[0,0.5],[1,0.5]];portConstraint=eastwest;" vertex="1" parent="FY0rsQSCU-_IRARhKVEz-69">
          <mxGeometry y="112.54545454545455" width="345" height="35" as="geometry" />
        </mxCell>
        <mxCell id="FY0rsQSCU-_IRARhKVEz-74" value="+updateUserProfile(userId, userData)" style="text;strokeColor=none;fillColor=none;align=left;verticalAlign=top;spacingLeft=4;spacingRight=4;overflow=hidden;rotatable=0;points=[[0,0.5],[1,0.5]];portConstraint=eastwest;" vertex="1" parent="FY0rsQSCU-_IRARhKVEz-69">
          <mxGeometry y="147.54545454545456" width="345" height="35" as="geometry" />
        </mxCell>
        <mxCell id="FY0rsQSCU-_IRARhKVEz-75" value="UserService" style="swimlane;fontStyle=1;align=center;verticalAlign=top;childLayout=stackLayout;horizontal=1;startSize=34.54545454545455;horizontalStack=0;resizeParent=1;resizeParentMax=0;resizeLast=0;collapsible=0;marginBottom=0;" vertex="1" parent="1">
          <mxGeometry x="1598" y="268" width="217" height="182.54545454545456" as="geometry" />
        </mxCell>
        <mxCell id="FY0rsQSCU-_IRARhKVEz-76" style="line;strokeWidth=1;fillColor=none;align=left;verticalAlign=middle;spacingTop=-1;spacingLeft=3;spacingRight=3;rotatable=0;labelPosition=right;points=[];portConstraint=eastwest;strokeColor=inherit;" vertex="1" parent="FY0rsQSCU-_IRARhKVEz-75">
          <mxGeometry y="34.54545454545455" width="217" height="8" as="geometry" />
        </mxCell>
        <mxCell id="FY0rsQSCU-_IRARhKVEz-77" value="+registerUser()" style="text;strokeColor=none;fillColor=none;align=left;verticalAlign=top;spacingLeft=4;spacingRight=4;overflow=hidden;rotatable=0;points=[[0,0.5],[1,0.5]];portConstraint=eastwest;" vertex="1" parent="FY0rsQSCU-_IRARhKVEz-75">
          <mxGeometry y="42.54545454545455" width="217" height="35" as="geometry" />
        </mxCell>
        <mxCell id="FY0rsQSCU-_IRARhKVEz-78" value="+loginUser()" style="text;strokeColor=none;fillColor=none;align=left;verticalAlign=top;spacingLeft=4;spacingRight=4;overflow=hidden;rotatable=0;points=[[0,0.5],[1,0.5]];portConstraint=eastwest;" vertex="1" parent="FY0rsQSCU-_IRARhKVEz-75">
          <mxGeometry y="77.54545454545455" width="217" height="35" as="geometry" />
        </mxCell>
        <mxCell id="FY0rsQSCU-_IRARhKVEz-79" value="+getUserProfile()" style="text;strokeColor=none;fillColor=none;align=left;verticalAlign=top;spacingLeft=4;spacingRight=4;overflow=hidden;rotatable=0;points=[[0,0.5],[1,0.5]];portConstraint=eastwest;" vertex="1" parent="FY0rsQSCU-_IRARhKVEz-75">
          <mxGeometry y="112.54545454545455" width="217" height="35" as="geometry" />
        </mxCell>
        <mxCell id="FY0rsQSCU-_IRARhKVEz-80" value="+updateUserProfile()" style="text;strokeColor=none;fillColor=none;align=left;verticalAlign=top;spacingLeft=4;spacingRight=4;overflow=hidden;rotatable=0;points=[[0,0.5],[1,0.5]];portConstraint=eastwest;" vertex="1" parent="FY0rsQSCU-_IRARhKVEz-75">
          <mxGeometry y="147.54545454545456" width="217" height="35" as="geometry" />
        </mxCell>
        <mxCell id="FY0rsQSCU-_IRARhKVEz-81" value="User" style="swimlane;fontStyle=1;align=center;verticalAlign=top;childLayout=stackLayout;horizontal=1;startSize=32;horizontalStack=0;resizeParent=1;resizeParentMax=0;resizeLast=0;collapsible=0;marginBottom=0;" vertex="1" parent="1">
          <mxGeometry x="1626" y="528" width="162" height="208" as="geometry" />
        </mxCell>
        <mxCell id="FY0rsQSCU-_IRARhKVEz-82" value="+int userId" style="text;strokeColor=none;fillColor=none;align=left;verticalAlign=top;spacingLeft=4;spacingRight=4;overflow=hidden;rotatable=0;points=[[0,0.5],[1,0.5]];portConstraint=eastwest;" vertex="1" parent="FY0rsQSCU-_IRARhKVEz-81">
          <mxGeometry y="32" width="162" height="32" as="geometry" />
        </mxCell>
        <mxCell id="FY0rsQSCU-_IRARhKVEz-83" value="+String name" style="text;strokeColor=none;fillColor=none;align=left;verticalAlign=top;spacingLeft=4;spacingRight=4;overflow=hidden;rotatable=0;points=[[0,0.5],[1,0.5]];portConstraint=eastwest;" vertex="1" parent="FY0rsQSCU-_IRARhKVEz-81">
          <mxGeometry y="64" width="162" height="32" as="geometry" />
        </mxCell>
        <mxCell id="FY0rsQSCU-_IRARhKVEz-84" value="+String email" style="text;strokeColor=none;fillColor=none;align=left;verticalAlign=top;spacingLeft=4;spacingRight=4;overflow=hidden;rotatable=0;points=[[0,0.5],[1,0.5]];portConstraint=eastwest;" vertex="1" parent="FY0rsQSCU-_IRARhKVEz-81">
          <mxGeometry y="96" width="162" height="32" as="geometry" />
        </mxCell>
        <mxCell id="FY0rsQSCU-_IRARhKVEz-85" value="+String password" style="text;strokeColor=none;fillColor=none;align=left;verticalAlign=top;spacingLeft=4;spacingRight=4;overflow=hidden;rotatable=0;points=[[0,0.5],[1,0.5]];portConstraint=eastwest;" vertex="1" parent="FY0rsQSCU-_IRARhKVEz-81">
          <mxGeometry y="128" width="162" height="32" as="geometry" />
        </mxCell>
        <mxCell id="FY0rsQSCU-_IRARhKVEz-86" value="+String role" style="text;strokeColor=none;fillColor=none;align=left;verticalAlign=top;spacingLeft=4;spacingRight=4;overflow=hidden;rotatable=0;points=[[0,0.5],[1,0.5]];portConstraint=eastwest;" vertex="1" parent="FY0rsQSCU-_IRARhKVEz-81">
          <mxGeometry y="160" width="162" height="32" as="geometry" />
        </mxCell>
        <mxCell id="FY0rsQSCU-_IRARhKVEz-87" style="line;strokeWidth=1;fillColor=none;align=left;verticalAlign=middle;spacingTop=-1;spacingLeft=3;spacingRight=3;rotatable=0;labelPosition=right;points=[];portConstraint=eastwest;strokeColor=inherit;" vertex="1" parent="FY0rsQSCU-_IRARhKVEz-81">
          <mxGeometry y="192" width="162" height="16" as="geometry" />
        </mxCell>
        <mxCell id="FY0rsQSCU-_IRARhKVEz-88" value="" style="curved=1;startArrow=none;endArrow=open;endSize=12;exitX=0.5;exitY=1;entryX=0.5;entryY=0;rounded=0;" edge="1" parent="1" source="FY0rsQSCU-_IRARhKVEz-1" target="FY0rsQSCU-_IRARhKVEz-7">
          <mxGeometry relative="1" as="geometry">
            <Array as="points" />
          </mxGeometry>
        </mxCell>
        <mxCell id="FY0rsQSCU-_IRARhKVEz-89" value="" style="curved=1;startArrow=none;endArrow=open;endSize=12;exitX=0.5;exitY=1;entryX=0.5;entryY=0;rounded=0;" edge="1" parent="1" source="FY0rsQSCU-_IRARhKVEz-7" target="FY0rsQSCU-_IRARhKVEz-13">
          <mxGeometry relative="1" as="geometry">
            <Array as="points" />
          </mxGeometry>
        </mxCell>
        <mxCell id="FY0rsQSCU-_IRARhKVEz-90" value="" style="curved=1;startArrow=none;endArrow=open;endSize=12;exitX=0.5;exitY=1;entryX=0.5;entryY=0;rounded=0;" edge="1" parent="1" source="FY0rsQSCU-_IRARhKVEz-21" target="FY0rsQSCU-_IRARhKVEz-26">
          <mxGeometry relative="1" as="geometry">
            <Array as="points" />
          </mxGeometry>
        </mxCell>
        <mxCell id="FY0rsQSCU-_IRARhKVEz-91" value="" style="curved=1;startArrow=none;endArrow=open;endSize=12;exitX=0.5;exitY=1;entryX=0.5;entryY=0;rounded=0;" edge="1" parent="1" source="FY0rsQSCU-_IRARhKVEz-26" target="FY0rsQSCU-_IRARhKVEz-31">
          <mxGeometry relative="1" as="geometry">
            <Array as="points" />
          </mxGeometry>
        </mxCell>
        <mxCell id="FY0rsQSCU-_IRARhKVEz-92" value="" style="curved=1;startArrow=none;endArrow=open;endSize=12;exitX=0.5;exitY=1;entryX=0.5;entryY=0;rounded=0;" edge="1" parent="1" source="FY0rsQSCU-_IRARhKVEz-37" target="FY0rsQSCU-_IRARhKVEz-42">
          <mxGeometry relative="1" as="geometry">
            <Array as="points" />
          </mxGeometry>
        </mxCell>
        <mxCell id="FY0rsQSCU-_IRARhKVEz-93" value="" style="curved=1;startArrow=none;endArrow=open;endSize=12;exitX=0.5;exitY=1;entryX=0.5;entryY=0;rounded=0;" edge="1" parent="1" source="FY0rsQSCU-_IRARhKVEz-42" target="FY0rsQSCU-_IRARhKVEz-47">
          <mxGeometry relative="1" as="geometry">
            <Array as="points" />
          </mxGeometry>
        </mxCell>
        <mxCell id="FY0rsQSCU-_IRARhKVEz-94" value="" style="curved=1;startArrow=none;endArrow=open;endSize=12;exitX=0.5;exitY=1;entryX=0.5;entryY=0;rounded=0;" edge="1" parent="1" source="FY0rsQSCU-_IRARhKVEz-54" target="FY0rsQSCU-_IRARhKVEz-58">
          <mxGeometry relative="1" as="geometry">
            <Array as="points" />
          </mxGeometry>
        </mxCell>
        <mxCell id="FY0rsQSCU-_IRARhKVEz-95" value="" style="curved=1;startArrow=none;endArrow=open;endSize=12;exitX=0.5;exitY=1;entryX=0.5;entryY=0;rounded=0;" edge="1" parent="1" source="FY0rsQSCU-_IRARhKVEz-58" target="FY0rsQSCU-_IRARhKVEz-62">
          <mxGeometry relative="1" as="geometry">
            <Array as="points" />
          </mxGeometry>
        </mxCell>
        <mxCell id="FY0rsQSCU-_IRARhKVEz-96" value="" style="curved=1;startArrow=none;endArrow=open;endSize=12;exitX=0.5;exitY=1;entryX=0.5;entryY=0;rounded=0;" edge="1" parent="1" source="FY0rsQSCU-_IRARhKVEz-69" target="FY0rsQSCU-_IRARhKVEz-75">
          <mxGeometry relative="1" as="geometry">
            <Array as="points" />
          </mxGeometry>
        </mxCell>
        <mxCell id="FY0rsQSCU-_IRARhKVEz-97" value="" style="curved=1;startArrow=none;endArrow=open;endSize=12;exitX=0.5;exitY=1;entryX=0.5;entryY=0;rounded=0;" edge="1" parent="1" source="FY0rsQSCU-_IRARhKVEz-75" target="FY0rsQSCU-_IRARhKVEz-81">
          <mxGeometry relative="1" as="geometry">
            <Array as="points" />
          </mxGeometry>
        </mxCell>
      </root>
    </mxGraphModel>
  </diagram>
</mxfile>
